<?xml version="1.0" standalone="no"?>
<!DOCTYPE svg PUBLIC "-//W3C//DTD SVG 20010904//EN"
 "http://www.w3.org/TR/2001/REC-SVG-20010904/DTD/svg10.dtd">
<svg version="1.0" xmlns="http://www.w3.org/2000/svg"
 width="113.000000pt" height="113.000000pt" viewBox="0 0 113.000000 113.000000"
 preserveAspectRatio="xMidYMid meet">
<metadata>
Created by potrace 1.11, written by Peter Selinger 2001-2013
</metadata>
<g transform="translate(0.000000,113.000000) scale(0.100000,-0.100000)"
fill="#000000" stroke="none">
<path d="M450 1119 c-25 -5 -52 -12 -60 -16 -8 -3 -17 -7 -20 -8 -131 -38
-289 -196 -335 -334 -25 -76 -27 -91 -30 -187 -7 -262 157 -482 414 -553 93
-26 237 -23 321 7 181 64 305 190 366 372 27 82 25 288 -4 347 -5 10 -19 41
-32 68 -25 53 -78 125 -120 163 -37 34 -107 82 -119 82 -6 0 -11 4 -11 9 0 4
-35 19 -77 31 -85 26 -215 34 -293 19z"/>
</g>
</svg>
